<svg width="360" height="290" viewBox="0 0 360 290" fill="none" xmlns="http://www.w3.org/2000/svg">
<path fill-rule="evenodd" clip-rule="evenodd" d="M-95 220.24L-85.0817 214.427C-75.1633 208.614 -54.8758 196.987 -35.0392 156.294C-14.7517 115.601 5.085 45.8415 25.3725 51.6548C45.2092 57.4681 65.4967 138.854 85.3333 167.921C105.17 196.987 125.457 173.734 145.294 185.361C165.582 196.987 185.418 243.494 205.706 226.054C225.542 208.614 245.83 127.228 265.667 80.7212C285.503 34.2149 305.791 22.5883 325.628 10.9617C345.915 -0.664936 365.752 -12.2915 386.039 28.4016C405.876 69.0947 426.163 162.107 436.082 208.614L446 255.12V290H436.082C426.163 290 405.876 290 386.039 290C365.752 290 345.915 290 325.628 290C305.791 290 285.503 290 265.667 290C245.83 290 225.542 290 205.706 290C185.418 290 165.582 290 145.294 290C125.457 290 105.17 290 85.3333 290C65.4967 290 45.2092 290 25.3725 290C5.085 290 -14.7517 290 -35.0392 290C-54.8758 290 -75.1633 290 -85.0817 290H-95V220.24Z" fill="url(#paint0_linear_23_81)"/>
<defs>
<linearGradient id="paint0_linear_23_81" x1="175.5" y1="0" x2="175.5" y2="290" gradientUnits="userSpaceOnUse">
<stop stop-color="#0099FF"/>
<stop offset="1" stop-color="#5200FF" stop-opacity="0"/>
</linearGradient>
</defs>
</svg>
