<svg width="360" height="156" viewBox="0 0 360 156" fill="none" xmlns="http://www.w3.org/2000/svg">
<path fill-rule="evenodd" clip-rule="evenodd" d="M-26 156L-14.825 137.843C-4.89167 119.686 16.2167 85.0235 37.325 63.5654C59.675 43.758 80.7833 37.1556 101.892 55.3123C123 73.4691 144.108 114.735 165.217 119.686C186.325 126.289 208.675 96.5778 229.783 66.8667C250.892 37.1555 272 7.44444 293.108 0.841971C314.217 -4.10988 335.325 14.0469 357.675 22.3C378.783 30.5531 399.892 30.5531 409.825 30.5531H421V156H409.825C399.892 156 378.783 156 357.675 156C335.325 156 314.217 156 293.108 156C272 156 250.892 156 229.783 156C208.675 156 186.325 156 165.217 156C144.108 156 123 156 101.892 156C80.7833 156 59.675 156 37.325 156C16.2167 156 -4.89167 156 -14.825 156H-26Z" fill="white"/>
</svg>
