<svg width="141" height="80" viewBox="0 0 141 80" fill="none" xmlns="http://www.w3.org/2000/svg">
<path d="M114.562 27.5C109.718 27.5 105.189 28.8225 101.278 31.09L84.1543 5H108.323C108.291 6.245 107.998 8.3275 106.563 9.965C105.085 11.6475 102.696 12.5 99.4554 12.5C99.1215 12.5 98.8013 12.6317 98.5652 12.8661C98.3291 13.1005 98.1964 13.4185 98.1964 13.75C98.1964 14.0815 98.3291 14.3995 98.5652 14.6339C98.8013 14.8683 99.1215 15 99.4554 15C103.456 15 106.485 13.86 108.459 11.61C111.387 8.27 110.801 3.77 110.773 3.58C110.732 3.28089 110.583 3.00674 110.354 2.80822C110.125 2.6097 109.831 2.50021 109.527 2.5H81.8304C81.6027 2.49842 81.3789 2.55839 81.183 2.6735C80.9871 2.7886 80.8265 2.95449 80.7183 3.15337C80.6101 3.35224 80.5585 3.57661 80.569 3.80239C80.5795 4.02818 80.6517 4.24687 80.7779 4.435L87.9059 15.295H47.9601L40.1976 2.5H54.1339C54.4678 2.5 54.788 2.3683 55.0241 2.13388C55.2602 1.89946 55.3929 1.58152 55.3929 1.25C55.3929 0.918479 55.2602 0.600537 55.0241 0.366117C54.788 0.131696 54.4678 0 54.1339 0L31.4732 0C31.1393 0 30.8191 0.131696 30.583 0.366117C30.3469 0.600537 30.2143 0.918479 30.2143 1.25C30.2143 1.58152 30.3469 1.89946 30.583 2.13388C30.8191 2.3683 31.1393 2.5 31.4732 2.5H37.2995C37.3247 2.5575 37.3297 2.62 37.3625 2.675L45.9534 16.83L38.2639 30.305C34.597 28.4643 30.5463 27.5035 26.4375 27.5C11.8591 27.5 0 39.275 0 53.75C0 68.225 11.8591 80 26.4375 80C40.5073 80 52.0114 69.0225 52.6736 55H80.5714C80.6444 56.4475 80.3297 58.42 78.9499 59.9725C77.4594 61.65 75.0397 62.5 71.7589 62.5C71.425 62.5 71.1048 62.6317 70.8687 62.8661C70.6326 63.1005 70.5 63.4185 70.5 63.75C70.5 64.0815 70.6326 64.3995 70.8687 64.6339C71.1048 64.8683 71.425 65 71.7589 65C75.8076 65 78.8694 63.8575 80.8585 61.605C83.7339 58.345 83.1925 54.015 83.1699 53.8325C83.1301 53.5316 82.9815 53.2553 82.7517 53.0552C82.5219 52.8551 82.2266 52.7449 81.921 52.745H72.0309L89.7742 18.145L99.1658 32.455C92.4935 37.2225 88.125 44.98 88.125 53.75C88.125 68.225 99.9841 80 114.562 80C129.141 80 141 68.225 141 53.75C141 39.275 129.141 27.5 114.562 27.5ZM87.1304 17.5L69.8882 51.42L49.4784 17.5H87.1304ZM47.444 19.2875L67.7505 52.745H52.8246C52.6592 48.4768 51.446 44.3133 49.2905 40.6168C47.1351 36.9202 44.1026 33.8026 40.4569 31.535L47.444 19.2875ZM50.3068 52.745H28.3536L39.2156 33.7075C42.4742 35.7567 45.1849 38.5585 47.1163 41.8736C49.0476 45.1887 50.1423 48.9187 50.3068 52.745ZM26.4375 77.5C13.249 77.5 2.51786 66.845 2.51786 53.75C2.51786 40.655 13.249 30 26.4375 30C30.2395 30 33.8249 30.91 37.0226 32.4825L25.098 53.3775C24.9891 53.5674 24.9325 53.7825 24.9338 54.001C24.9351 54.2196 24.9943 54.4339 25.1056 54.6225C25.3296 55.005 25.7451 55.2425 26.1933 54.9975H50.2816C49.4986 67.6425 39.1199 77.5 26.4375 77.5ZM114.562 77.5C101.374 77.5 90.6429 66.845 90.6429 53.75C90.6429 45.8575 94.5556 38.87 100.543 34.55L113.754 54.6775C113.937 54.9543 114.223 55.148 114.55 55.2164C114.876 55.2847 115.216 55.2222 115.497 55.0425C115.775 54.8606 115.97 54.5767 116.039 54.2527C116.108 53.9286 116.045 53.5907 115.864 53.3125L102.653 33.185C106.271 31.0993 110.379 30.0005 114.562 30C127.751 30 138.482 40.655 138.482 53.75C138.482 66.845 127.751 77.5 114.562 77.5Z" fill="#7A10AC"/>
</svg>
