<svg width="34" height="35" viewBox="0 0 34 35" fill="none" xmlns="http://www.w3.org/2000/svg">
<g id="octicon:download-16">
<path id="Vector" d="M5.84375 30.5183C4.85748 30.5183 3.9116 30.1265 3.2142 29.4291C2.5168 28.7317 2.125 27.7858 2.125 26.7996V21.4871C2.125 21.0644 2.29291 20.659 2.5918 20.3601C2.89068 20.0612 3.29606 19.8933 3.71875 19.8933C4.14144 19.8933 4.54682 20.0612 4.8457 20.3601C5.14459 20.659 5.3125 21.0644 5.3125 21.4871V26.7996C5.3125 27.0928 5.5505 27.3308 5.84375 27.3308H28.1562C28.2971 27.3308 28.4323 27.2748 28.5319 27.1752C28.6315 27.0756 28.6875 26.9405 28.6875 26.7996V21.4871C28.6875 21.0644 28.8554 20.659 29.1543 20.3601C29.4532 20.0612 29.8586 19.8933 30.2812 19.8933C30.7039 19.8933 31.1093 20.0612 31.4082 20.3601C31.7071 20.659 31.875 21.0644 31.875 21.4871V26.7996C31.875 27.7858 31.4832 28.7317 30.7858 29.4291C30.0884 30.1265 29.1425 30.5183 28.1562 30.5183H5.84375Z" fill="#B55DDF"/>
<path id="Vector_2" d="M15.4062 17.1074V5.01831C15.4062 4.59562 15.5741 4.19025 15.873 3.89136C16.1719 3.59247 16.5773 3.42456 17 3.42456C17.4227 3.42456 17.828 3.59247 18.1269 3.89136C18.4258 4.19025 18.5937 4.59562 18.5937 5.01831V17.1074L22.78 12.9233C22.9279 12.7754 23.1035 12.6581 23.2967 12.578C23.49 12.498 23.6971 12.4568 23.9062 12.4568C24.1154 12.4568 24.3225 12.498 24.5158 12.578C24.709 12.6581 24.8846 12.7754 25.0325 12.9233C25.1804 13.0712 25.2977 13.2468 25.3778 13.44C25.4578 13.6333 25.499 13.8404 25.499 14.0496C25.499 14.2587 25.4578 14.4658 25.3778 14.6591C25.2977 14.8523 25.1804 15.0279 25.0325 15.1758L18.1262 22.0821C17.9784 22.2301 17.8028 22.3475 17.6096 22.4277C17.4163 22.5078 17.2092 22.549 17 22.549C16.7908 22.549 16.5836 22.5078 16.3904 22.4277C16.1971 22.3475 16.0216 22.2301 15.8737 22.0821L8.96748 15.1758C8.81958 15.0279 8.70226 14.8523 8.62222 14.6591C8.54217 14.4658 8.50098 14.2587 8.50098 14.0496C8.50098 13.8404 8.54217 13.6333 8.62222 13.44C8.70226 13.2468 8.81958 13.0712 8.96748 12.9233C9.11539 12.7754 9.29097 12.6581 9.48421 12.578C9.67746 12.498 9.88457 12.4568 10.0937 12.4568C10.3029 12.4568 10.51 12.498 10.7033 12.578C10.8965 12.6581 11.0721 12.7754 11.22 12.9233L15.4062 17.1074Z" fill="#B55DDF"/>
</g>
</svg>
