<svg width="40" height="37" viewBox="0 0 40 37" fill="none" xmlns="http://www.w3.org/2000/svg">
<path d="M15.4506 34.1807V23.5557H23.9506V34.1807C23.9506 35.3494 24.9068 36.3057 26.0756 36.3057H32.4506C33.6193 36.3057 34.5756 35.3494 34.5756 34.1807V19.3057H38.1881C39.1656 19.3057 39.6331 18.0944 38.8893 17.4569L21.1243 1.45569C20.3168 0.733193 19.0843 0.733193 18.2768 1.45569L0.511837 17.4569C-0.210663 18.0944 0.235587 19.3057 1.21309 19.3057H4.82559V34.1807C4.82559 35.3494 5.78184 36.3057 6.95059 36.3057H13.3256C14.4943 36.3057 15.4506 35.3494 15.4506 34.1807Z" fill="url(#paint0_linear_23_89)"/>
<defs>
<linearGradient id="paint0_linear_23_89" x1="19.7053" y1="0.913818" x2="19.7053" y2="36.3057" gradientUnits="userSpaceOnUse">
<stop stop-color="#4A95CC"/>
<stop offset="1" stop-color="#B55DDF"/>
</linearGradient>
</defs>
</svg>
