<svg width="18" height="21" viewBox="0 0 18 21" fill="none" xmlns="http://www.w3.org/2000/svg">
<path id="Vector" d="M15 2.47997C13.4087 0.888672 11.2504 -0.00531008 8.99999 -0.00531006C6.74955 -0.00531004 4.59129 0.888672 2.99999 2.47997C1.40869 4.07127 0.514709 6.22954 0.514709 8.47997C0.514709 10.7304 1.40869 12.8887 2.99999 14.48L8.26999 19.76C8.36295 19.8537 8.47356 19.9281 8.59541 19.9789C8.71727 20.0296 8.84798 20.0558 8.97999 20.0558C9.112 20.0558 9.24271 20.0296 9.36457 19.9789C9.48643 19.9281 9.59703 19.8537 9.68999 19.76L15 14.43C16.5846 12.8453 17.4749 10.696 17.4749 8.45497C17.4749 6.21392 16.5846 4.06465 15 2.47997ZM13.57 13L8.99999 17.59L4.42999 13C3.52713 12.0963 2.91247 10.9452 2.66369 9.69226C2.4149 8.43931 2.54318 7.14072 3.03229 5.96065C3.52141 4.78059 4.34941 3.77202 5.41162 3.06245C6.47383 2.35288 7.72258 1.97415 8.99999 1.97415C10.2774 1.97415 11.5261 2.35288 12.5884 3.06245C13.6506 3.77202 14.4786 4.78059 14.9677 5.96065C15.4568 7.14072 15.5851 8.43931 15.3363 9.69226C15.0875 10.9452 14.4728 12.0963 13.57 13ZM5.99999 5.40997C5.19271 6.21974 4.73939 7.31654 4.73939 8.45997C4.73939 9.6034 5.19271 10.7002 5.99999 11.51C6.59975 12.1108 7.36358 12.5211 8.19564 12.6894C9.0277 12.8577 9.89094 12.7766 10.6771 12.4561C11.4632 12.1357 12.1372 11.5903 12.6145 10.8882C13.0918 10.1862 13.3511 9.35884 13.36 8.50997C13.3645 7.94318 13.2553 7.38123 13.0389 6.85736C12.8225 6.33349 12.5032 5.85833 12.1 5.45997C11.7037 5.05455 11.2311 4.73151 10.7094 4.50944C10.1878 4.28736 9.62733 4.17065 9.06039 4.166C8.49345 4.16135 7.93119 4.26887 7.40596 4.48236C6.88073 4.69585 6.40291 5.0111 5.99999 5.40997ZM10.69 10.09C10.311 10.4747 9.8102 10.7159 9.27312 10.7722C8.73603 10.8286 8.19605 10.6966 7.7455 10.3989C7.29494 10.1012 6.96179 9.65621 6.803 9.14005C6.64421 8.6239 6.66964 8.06861 6.87495 7.56913C7.08026 7.06964 7.45269 6.65699 7.92858 6.40171C8.40446 6.14643 8.95424 6.06438 9.48393 6.16959C10.0136 6.2748 10.4903 6.56073 10.8325 6.9785C11.1747 7.39627 11.3612 7.91994 11.36 8.45997C11.3454 9.07724 11.0865 9.6635 10.64 10.09H10.69Z" fill="white"/>
</svg>
