<svg width="207" height="168" viewBox="0 0 207 168" fill="none" xmlns="http://www.w3.org/2000/svg">
<!-- <path class="bike" stroke="#fff" stroke-width="3" d="M147.562 71.5C142.718 71.5 138.189 72.8225 134.278 75.09L117.154 49H141.323C141.291 50.245 140.998 52.3275 139.563 53.965C138.085 55.6475 135.696 56.5 132.455 56.5C132.121 56.5 131.801 56.6317 131.565 56.8661C131.329 57.1005 131.196 57.4185 131.196 57.75C131.196 58.0815 131.329 58.3995 131.565 58.6339C131.801 58.8683 132.121 59 132.455 59C136.456 59 139.485 57.86 141.459 55.61C144.387 52.27 143.801 47.77 143.773 47.58C143.732 47.2809 143.583 47.0067 143.354 46.8082C143.125 46.6097 142.831 46.5002 142.527 46.5H114.83C114.603 46.4984 114.379 46.5584 114.183 46.6735C113.987 46.7886 113.826 46.9545 113.718 47.1534C113.61 47.3522 113.559 47.5766 113.569 47.8024C113.58 48.0282 113.652 48.2469 113.778 48.435L120.906 59.295H80.9601L73.1976 46.5H87.1339C87.4678 46.5 87.788 46.3683 88.0241 46.1339C88.2602 45.8995 88.3929 45.5815 88.3929 45.25C88.3929 44.9185 88.2602 44.6005 88.0241 44.3661C87.788 44.1317 87.4678 44 87.1339 44H64.4732C64.1393 44 63.8191 44.1317 63.583 44.3661C63.3469 44.6005 63.2143 44.9185 63.2143 45.25C63.2143 45.5815 63.3469 45.8995 63.583 46.1339C63.8191 46.3683 64.1393 46.5 64.4732 46.5H70.2995C70.3247 46.5575 70.3298 46.62 70.3625 46.675L78.9534 60.83L71.2639 74.305C67.597 72.4643 63.5463 71.5035 59.4375 71.5C44.8591 71.5 33 83.275 33 97.75C33 112.225 44.8591 124 59.4375 124C73.5073 124 85.0114 113.022 85.6736 99H113.571C113.644 100.447 113.33 102.42 111.95 103.972C110.459 105.65 108.04 106.5 104.759 106.5C104.425 106.5 104.105 106.632 103.869 106.866C103.633 107.101 103.5 107.418 103.5 107.75C103.5 108.082 103.633 108.399 103.869 108.634C104.105 108.868 104.425 109 104.759 109C108.808 109 111.869 107.858 113.858 105.605C116.734 102.345 116.193 98.015 116.17 97.8325C116.13 97.5316 115.981 97.2553 115.752 97.0552C115.522 96.8551 115.227 96.7449 114.921 96.745H105.031L122.774 62.145L132.166 76.455C125.493 81.2225 121.125 88.98 121.125 97.75C121.125 112.225 132.984 124 147.562 124C162.141 124 174 112.225 174 97.75C174 83.275 162.141 71.5 147.562 71.5ZM120.13 61.5L102.888 95.42L82.4784 61.5H120.13ZM80.444 63.2875L100.751 96.745H85.8246C85.6592 92.4768 84.446 88.3133 82.2905 84.6168C80.1351 80.9202 77.1026 77.8026 73.4569 75.535L80.444 63.2875ZM83.3068 96.745H61.3536L72.2156 77.7075C75.4742 79.7567 78.1849 82.5585 80.1163 85.8736C82.0476 89.1887 83.1423 92.9187 83.3068 96.745ZM59.4375 121.5C46.249 121.5 35.5179 110.845 35.5179 97.75C35.5179 84.655 46.249 74 59.4375 74C63.2395 74 66.8249 74.91 70.0226 76.4825L58.098 97.3775C57.9891 97.5674 57.9325 97.7825 57.9338 98.001C57.9351 98.2196 57.9944 98.4339 58.1056 98.6225C58.3296 99.005 58.7451 99.2425 59.1933 98.9975H83.2816C82.4986 111.643 72.1199 121.5 59.4375 121.5ZM147.562 121.5C134.374 121.5 123.643 110.845 123.643 97.75C123.643 89.8575 127.556 82.87 133.543 78.55L146.754 98.6775C146.937 98.9543 147.223 99.148 147.55 99.2164C147.876 99.2847 148.216 99.2222 148.497 99.0425C148.775 98.8606 148.97 98.5767 149.039 98.2527C149.108 97.9286 149.045 97.5907 148.864 97.3125L135.653 77.185C139.271 75.0993 143.379 74.0005 147.562 74C160.751 74 171.482 84.655 171.482 97.75C171.482 110.845 160.751 121.5 147.562 121.5Z" fill="white"/> -->
<path d="M67.6771 22.384C68.2851 22.48 68.8371 22.728 69.3331 23.128C69.8451 23.528 70.2451 24.024 70.5331 24.616C70.8371 25.208 70.9891 25.84 70.9891 26.512C70.9891 27.36 70.7731 28.128 70.3411 28.816C69.9091 29.488 69.2771 30.024 68.4451 30.424C67.6291 30.808 66.6611 31 65.5411 31H59.3011V14.272H65.3011C66.4371 14.272 67.4051 14.464 68.2051 14.848C69.0051 15.216 69.6051 15.72 70.0051 16.36C70.4051 17 70.6051 17.72 70.6051 18.52C70.6051 19.512 70.3331 20.336 69.7891 20.992C69.2611 21.632 68.5571 22.096 67.6771 22.384ZM61.4851 21.496H65.1571C66.1811 21.496 66.9731 21.256 67.5331 20.776C68.0931 20.296 68.3731 19.632 68.3731 18.784C68.3731 17.936 68.0931 17.272 67.5331 16.792C66.9731 16.312 66.1651 16.072 65.1091 16.072H61.4851V21.496ZM65.3491 29.2C66.4371 29.2 67.2851 28.944 67.8931 28.432C68.5011 27.92 68.8051 27.208 68.8051 26.296C68.8051 25.368 68.4851 24.64 67.8451 24.112C67.2051 23.568 66.3491 23.296 65.2771 23.296H61.4851V29.2H65.3491ZM75.1479 15.712C74.7319 15.712 74.3799 15.568 74.0919 15.28C73.8039 14.992 73.6599 14.64 73.6599 14.224C73.6599 13.808 73.8039 13.456 74.0919 13.168C74.3799 12.88 74.7319 12.736 75.1479 12.736C75.5479 12.736 75.8839 12.88 76.1559 13.168C76.4439 13.456 76.5879 13.808 76.5879 14.224C76.5879 14.64 76.4439 14.992 76.1559 15.28C75.8839 15.568 75.5479 15.712 75.1479 15.712ZM76.2039 17.848V31H74.0199V17.848H76.2039ZM80.6221 31.144C80.2061 31.144 79.8541 31 79.5661 30.712C79.2781 30.424 79.1341 30.072 79.1341 29.656C79.1341 29.24 79.2781 28.888 79.5661 28.6C79.8541 28.312 80.2061 28.168 80.6221 28.168C81.0221 28.168 81.3581 28.312 81.6301 28.6C81.9181 28.888 82.0621 29.24 82.0621 29.656C82.0621 30.072 81.9181 30.424 81.6301 30.712C81.3581 31 81.0221 31.144 80.6221 31.144ZM84.1492 22.624C84.1492 20.992 84.5172 19.528 85.2532 18.232C85.9892 16.92 86.9892 15.896 88.2532 15.16C89.5332 14.424 90.9492 14.056 92.5012 14.056C94.3252 14.056 95.9172 14.496 97.2772 15.376C98.6372 16.256 99.6292 17.504 100.253 19.12H97.6372C97.1732 18.112 96.5012 17.336 95.6212 16.792C94.7572 16.248 93.7172 15.976 92.5012 15.976C91.3332 15.976 90.2852 16.248 89.3572 16.792C88.4292 17.336 87.7012 18.112 87.1732 19.12C86.6452 20.112 86.3812 21.28 86.3812 22.624C86.3812 23.952 86.6452 25.12 87.1732 26.128C87.7012 27.12 88.4292 27.888 89.3572 28.432C90.2852 28.976 91.3332 29.248 92.5012 29.248C93.7172 29.248 94.7572 28.984 95.6212 28.456C96.5012 27.912 97.1732 27.136 97.6372 26.128H100.253C99.6292 27.728 98.6372 28.968 97.2772 29.848C95.9172 30.712 94.3252 31.144 92.5012 31.144C90.9492 31.144 89.5332 30.784 88.2532 30.064C86.9892 29.328 85.9892 28.312 85.2532 27.016C84.5172 25.72 84.1492 24.256 84.1492 22.624ZM114.832 17.848L106.912 37.192H104.656L107.248 30.856L101.944 17.848H104.368L108.496 28.504L112.576 17.848H114.832ZM116.212 24.4C116.212 23.04 116.484 21.856 117.028 20.848C117.572 19.824 118.324 19.032 119.284 18.472C120.26 17.912 121.372 17.632 122.62 17.632C124.236 17.632 125.564 18.024 126.604 18.808C127.66 19.592 128.356 20.68 128.692 22.072H126.34C126.116 21.272 125.676 20.64 125.02 20.176C124.38 19.712 123.58 19.48 122.62 19.48C121.372 19.48 120.364 19.912 119.596 20.776C118.828 21.624 118.444 22.832 118.444 24.4C118.444 25.984 118.828 27.208 119.596 28.072C120.364 28.936 121.372 29.368 122.62 29.368C123.58 29.368 124.38 29.144 125.02 28.696C125.66 28.248 126.1 27.608 126.34 26.776H128.692C128.34 28.12 127.636 29.2 126.58 30.016C125.524 30.816 124.204 31.216 122.62 31.216C121.372 31.216 120.26 30.936 119.284 30.376C118.324 29.816 117.572 29.024 117.028 28C116.484 26.976 116.212 25.776 116.212 24.4ZM133.79 13.24V31H131.606V13.24H133.79ZM149.512 23.92C149.512 24.336 149.488 24.776 149.44 25.24H138.928C139.008 26.536 139.448 27.552 140.248 28.288C141.064 29.008 142.048 29.368 143.2 29.368C144.144 29.368 144.928 29.152 145.552 28.72C146.192 28.272 146.64 27.68 146.896 26.944H149.248C148.896 28.208 148.192 29.24 147.136 30.04C146.08 30.824 144.768 31.216 143.2 31.216C141.952 31.216 140.832 30.936 139.84 30.376C138.864 29.816 138.096 29.024 137.536 28C136.976 26.96 136.696 25.76 136.696 24.4C136.696 23.04 136.968 21.848 137.512 20.824C138.056 19.8 138.816 19.016 139.792 18.472C140.784 17.912 141.92 17.632 143.2 17.632C144.448 17.632 145.552 17.904 146.512 18.448C147.472 18.992 148.208 19.744 148.72 20.704C149.248 21.648 149.512 22.72 149.512 23.92ZM147.256 23.464C147.256 22.632 147.072 21.92 146.704 21.328C146.336 20.72 145.832 20.264 145.192 19.96C144.568 19.64 143.872 19.48 143.104 19.48C142 19.48 141.056 19.832 140.272 20.536C139.504 21.24 139.064 22.216 138.952 23.464H147.256Z" fill="white"/>
<path d="M48.7667 144.05C49.0187 143.518 49.406 143.084 49.9287 142.748C50.4607 142.412 51.086 142.244 51.8047 142.244C52.5047 142.244 53.13 142.407 53.6807 142.734C54.2313 143.051 54.6607 143.509 54.9687 144.106C55.286 144.694 55.4447 145.38 55.4447 146.164C55.4447 146.948 55.286 147.639 54.9687 148.236C54.6607 148.833 54.2267 149.295 53.6667 149.622C53.116 149.949 52.4953 150.112 51.8047 150.112C51.0767 150.112 50.4467 149.949 49.9147 149.622C49.392 149.286 49.0093 148.852 48.7667 148.32V150H47.8007V139.64H48.7667V144.05ZM54.4507 146.164C54.4507 145.529 54.3247 144.983 54.0727 144.526C53.83 144.059 53.494 143.705 53.0647 143.462C52.6353 143.219 52.15 143.098 51.6087 143.098C51.086 143.098 50.6053 143.224 50.1667 143.476C49.7373 143.728 49.3967 144.087 49.1447 144.554C48.8927 145.021 48.7667 145.562 48.7667 146.178C48.7667 146.794 48.8927 147.335 49.1447 147.802C49.3967 148.269 49.7373 148.628 50.1667 148.88C50.6053 149.132 51.086 149.258 51.6087 149.258C52.15 149.258 52.6353 149.137 53.0647 148.894C53.494 148.642 53.83 148.283 54.0727 147.816C54.3247 147.34 54.4507 146.789 54.4507 146.164ZM63.5479 142.356L59.0119 153.598H57.9899L59.4739 149.958L56.3379 142.356H57.4159L60.0199 148.88L62.5399 142.356H63.5479ZM68.2706 145.1C68.2706 144.139 68.4806 143.28 68.9006 142.524C69.3206 141.759 69.8946 141.166 70.6226 140.746C71.3506 140.317 72.1626 140.102 73.0586 140.102C74.1506 140.102 75.084 140.363 75.8586 140.886C76.6426 141.399 77.212 142.127 77.5666 143.07H76.4186C76.1386 142.407 75.7093 141.889 75.1306 141.516C74.5613 141.143 73.8706 140.956 73.0586 140.956C72.34 140.956 71.6913 141.124 71.1126 141.46C70.5433 141.796 70.0953 142.281 69.7686 142.916C69.442 143.541 69.2786 144.269 69.2786 145.1C69.2786 145.931 69.442 146.659 69.7686 147.284C70.0953 147.909 70.5433 148.39 71.1126 148.726C71.6913 149.062 72.34 149.23 73.0586 149.23C73.8706 149.23 74.5613 149.048 75.1306 148.684C75.7093 148.311 76.1386 147.797 76.4186 147.144H77.5666C77.212 148.077 76.6426 148.801 75.8586 149.314C75.0746 149.827 74.1413 150.084 73.0586 150.084C72.1626 150.084 71.3506 149.874 70.6226 149.454C69.8946 149.025 69.3206 148.432 68.9006 147.676C68.4806 146.92 68.2706 146.061 68.2706 145.1ZM82.8654 150.112C82.1467 150.112 81.4981 149.953 80.9194 149.636C80.3501 149.309 79.8974 148.852 79.5614 148.264C79.2347 147.667 79.0714 146.971 79.0714 146.178C79.0714 145.385 79.2394 144.694 79.5754 144.106C79.9114 143.509 80.3687 143.051 80.9474 142.734C81.5261 142.407 82.1747 142.244 82.8934 142.244C83.6121 142.244 84.2607 142.407 84.8394 142.734C85.4274 143.051 85.8847 143.509 86.2114 144.106C86.5474 144.694 86.7154 145.385 86.7154 146.178C86.7154 146.962 86.5474 147.653 86.2114 148.25C85.8754 148.847 85.4134 149.309 84.8254 149.636C84.2374 149.953 83.5841 150.112 82.8654 150.112ZM82.8654 149.258C83.3694 149.258 83.8361 149.146 84.2654 148.922C84.6947 148.689 85.0401 148.343 85.3014 147.886C85.5721 147.419 85.7074 146.85 85.7074 146.178C85.7074 145.506 85.5767 144.941 85.3154 144.484C85.0541 144.017 84.7087 143.672 84.2794 143.448C83.8501 143.215 83.3834 143.098 82.8794 143.098C82.3754 143.098 81.9087 143.215 81.4794 143.448C81.0501 143.672 80.7047 144.017 80.4434 144.484C80.1914 144.941 80.0654 145.506 80.0654 146.178C80.0654 146.85 80.1914 147.419 80.4434 147.886C80.7047 148.343 81.0454 148.689 81.4654 148.922C81.8947 149.146 82.3614 149.258 82.8654 149.258ZM88.0538 146.164C88.0538 145.38 88.2125 144.694 88.5298 144.106C88.8472 143.509 89.2812 143.051 89.8318 142.734C90.3918 142.407 91.0218 142.244 91.7218 142.244C92.3938 142.244 93.0005 142.407 93.5418 142.734C94.0832 143.061 94.4798 143.485 94.7318 144.008V139.64H95.7118V150H94.7318V148.292C94.4985 148.824 94.1158 149.263 93.5838 149.608C93.0518 149.944 92.4265 150.112 91.7078 150.112C91.0078 150.112 90.3778 149.949 89.8178 149.622C89.2672 149.295 88.8332 148.833 88.5158 148.236C88.2078 147.639 88.0538 146.948 88.0538 146.164ZM94.7318 146.178C94.7318 145.562 94.6058 145.021 94.3538 144.554C94.1018 144.087 93.7565 143.728 93.3178 143.476C92.8885 143.224 92.4125 143.098 91.8898 143.098C91.3485 143.098 90.8632 143.219 90.4338 143.462C90.0045 143.705 89.6638 144.059 89.4118 144.526C89.1692 144.983 89.0478 145.529 89.0478 146.164C89.0478 146.789 89.1692 147.34 89.4118 147.816C89.6638 148.283 90.0045 148.642 90.4338 148.894C90.8632 149.137 91.3485 149.258 91.8898 149.258C92.4125 149.258 92.8885 149.132 93.3178 148.88C93.7565 148.628 94.1018 148.269 94.3538 147.802C94.6058 147.335 94.7318 146.794 94.7318 146.178ZM104.865 145.786C104.865 146.122 104.856 146.379 104.837 146.556H98.4951C98.5231 147.135 98.6631 147.629 98.9151 148.04C99.1671 148.451 99.4984 148.763 99.9091 148.978C100.32 149.183 100.768 149.286 101.253 149.286C101.888 149.286 102.42 149.132 102.849 148.824C103.288 148.516 103.577 148.101 103.717 147.578H104.753C104.566 148.325 104.165 148.936 103.549 149.412C102.942 149.879 102.177 150.112 101.253 150.112C100.534 150.112 99.8904 149.953 99.3211 149.636C98.7518 149.309 98.3038 148.852 97.9771 148.264C97.6598 147.667 97.5011 146.971 97.5011 146.178C97.5011 145.385 97.6598 144.689 97.9771 144.092C98.2944 143.495 98.7378 143.037 99.3071 142.72C99.8764 142.403 100.525 142.244 101.253 142.244C101.981 142.244 102.616 142.403 103.157 142.72C103.708 143.037 104.128 143.467 104.417 144.008C104.716 144.54 104.865 145.133 104.865 145.786ZM103.871 145.758C103.88 145.189 103.764 144.703 103.521 144.302C103.288 143.901 102.966 143.597 102.555 143.392C102.144 143.187 101.696 143.084 101.211 143.084C100.483 143.084 99.8624 143.317 99.3491 143.784C98.8358 144.251 98.5511 144.909 98.4951 145.758H103.871ZM106.21 145.1C106.21 144.139 106.42 143.28 106.84 142.524C107.26 141.759 107.834 141.166 108.562 140.746C109.29 140.317 110.102 140.102 110.998 140.102C112.09 140.102 113.023 140.363 113.798 140.886C114.582 141.399 115.151 142.127 115.506 143.07H114.358C114.078 142.407 113.649 141.889 113.07 141.516C112.501 141.143 111.81 140.956 110.998 140.956C110.279 140.956 109.631 141.124 109.052 141.46C108.483 141.796 108.035 142.281 107.708 142.916C107.381 143.541 107.218 144.269 107.218 145.1C107.218 145.931 107.381 146.659 107.708 147.284C108.035 147.909 108.483 148.39 109.052 148.726C109.631 149.062 110.279 149.23 110.998 149.23C111.81 149.23 112.501 149.048 113.07 148.684C113.649 148.311 114.078 147.797 114.358 147.144H115.506C115.151 148.077 114.582 148.801 113.798 149.314C113.014 149.827 112.081 150.084 110.998 150.084C110.102 150.084 109.29 149.874 108.562 149.454C107.834 149.025 107.26 148.432 106.84 147.676C106.42 146.92 106.21 146.061 106.21 145.1ZM118.439 143.714C118.654 143.238 118.98 142.869 119.419 142.608C119.867 142.347 120.413 142.216 121.057 142.216V143.238H120.791C120.082 143.238 119.512 143.429 119.083 143.812C118.654 144.195 118.439 144.834 118.439 145.73V150H117.459V142.356H118.439V143.714ZM122.083 146.164C122.083 145.38 122.237 144.694 122.545 144.106C122.862 143.509 123.296 143.051 123.847 142.734C124.407 142.407 125.037 142.244 125.737 142.244C126.465 142.244 127.09 142.412 127.613 142.748C128.145 143.084 128.528 143.513 128.761 144.036V142.356H129.741V150H128.761V148.306C128.518 148.829 128.131 149.263 127.599 149.608C127.076 149.944 126.451 150.112 125.723 150.112C125.032 150.112 124.407 149.949 123.847 149.622C123.296 149.295 122.862 148.833 122.545 148.236C122.237 147.639 122.083 146.948 122.083 146.164ZM128.761 146.178C128.761 145.562 128.635 145.021 128.383 144.554C128.131 144.087 127.786 143.728 127.347 143.476C126.918 143.224 126.442 143.098 125.919 143.098C125.378 143.098 124.892 143.219 124.463 143.462C124.034 143.705 123.693 144.059 123.441 144.526C123.198 144.983 123.077 145.529 123.077 146.164C123.077 146.789 123.198 147.34 123.441 147.816C123.693 148.283 124.034 148.642 124.463 148.894C124.892 149.137 125.378 149.258 125.919 149.258C126.442 149.258 126.918 149.132 127.347 148.88C127.786 148.628 128.131 148.269 128.383 147.802C128.635 147.335 128.761 146.794 128.761 146.178ZM134.988 143.182H133.21V150H132.23V143.182H131.166V142.356H132.23V141.824C132.23 140.993 132.44 140.382 132.86 139.99C133.29 139.598 133.98 139.402 134.932 139.402V140.242C134.298 140.242 133.85 140.363 133.588 140.606C133.336 140.849 133.21 141.255 133.21 141.824V142.356H134.988V143.182ZM137.805 143.182V147.928C137.805 148.395 137.894 148.717 138.071 148.894C138.248 149.071 138.561 149.16 139.009 149.16H139.905V150H138.855C138.164 150 137.651 149.841 137.315 149.524C136.979 149.197 136.811 148.665 136.811 147.928V143.182H135.747V142.356H136.811V140.438H137.805V142.356H139.905V143.182H137.805ZM148.437 145.786C148.437 146.122 148.428 146.379 148.409 146.556H142.067C142.095 147.135 142.235 147.629 142.487 148.04C142.739 148.451 143.071 148.763 143.481 148.978C143.892 149.183 144.34 149.286 144.825 149.286C145.46 149.286 145.992 149.132 146.421 148.824C146.86 148.516 147.149 148.101 147.289 147.578H148.325C148.139 148.325 147.737 148.936 147.121 149.412C146.515 149.879 145.749 150.112 144.825 150.112C144.107 150.112 143.463 149.953 142.893 149.636C142.324 149.309 141.876 148.852 141.549 148.264C141.232 147.667 141.073 146.971 141.073 146.178C141.073 145.385 141.232 144.689 141.549 144.092C141.867 143.495 142.31 143.037 142.879 142.72C143.449 142.403 144.097 142.244 144.825 142.244C145.553 142.244 146.188 142.403 146.729 142.72C147.28 143.037 147.7 143.467 147.989 144.008C148.288 144.54 148.437 145.133 148.437 145.786ZM147.443 145.758C147.453 145.189 147.336 144.703 147.093 144.302C146.86 143.901 146.538 143.597 146.127 143.392C145.717 143.187 145.269 143.084 144.783 143.084C144.055 143.084 143.435 143.317 142.921 143.784C142.408 144.251 142.123 144.909 142.067 145.758H147.443ZM151.21 143.714C151.425 143.238 151.752 142.869 152.19 142.608C152.638 142.347 153.184 142.216 153.828 142.216V143.238H153.562C152.853 143.238 152.284 143.429 151.854 143.812C151.425 144.195 151.21 144.834 151.21 145.73V150H150.23V142.356H151.21V143.714ZM157.935 150.112C157.057 150.112 156.339 149.911 155.779 149.51C155.228 149.099 154.92 148.544 154.855 147.844H155.863C155.909 148.273 156.11 148.623 156.465 148.894C156.829 149.155 157.314 149.286 157.921 149.286C158.453 149.286 158.868 149.16 159.167 148.908C159.475 148.656 159.629 148.343 159.629 147.97C159.629 147.709 159.545 147.494 159.377 147.326C159.209 147.158 158.994 147.027 158.733 146.934C158.481 146.831 158.135 146.724 157.697 146.612C157.127 146.463 156.665 146.313 156.311 146.164C155.956 146.015 155.653 145.795 155.401 145.506C155.158 145.207 155.037 144.811 155.037 144.316C155.037 143.943 155.149 143.597 155.373 143.28C155.597 142.963 155.914 142.711 156.325 142.524C156.735 142.337 157.202 142.244 157.725 142.244C158.546 142.244 159.209 142.454 159.713 142.874C160.217 143.285 160.487 143.854 160.525 144.582H159.545C159.517 144.134 159.339 143.775 159.013 143.504C158.695 143.224 158.257 143.084 157.697 143.084C157.202 143.084 156.801 143.201 156.493 143.434C156.185 143.667 156.031 143.957 156.031 144.302C156.031 144.601 156.119 144.848 156.297 145.044C156.483 145.231 156.712 145.38 156.983 145.492C157.253 145.595 157.617 145.711 158.075 145.842C158.625 145.991 159.064 146.136 159.391 146.276C159.717 146.416 159.997 146.621 160.231 146.892C160.464 147.163 160.585 147.522 160.595 147.97C160.595 148.381 160.483 148.749 160.259 149.076C160.035 149.393 159.722 149.645 159.321 149.832C158.919 150.019 158.457 150.112 157.935 150.112Z" fill="white"/>
</svg>
