<svg width="30" height="30" viewBox="0 0 30 30" fill="none" xmlns="http://www.w3.org/2000/svg">
<path d="M15 3.66671C18.355 3.66671 21.3713 5.12358 23.4477 7.44491C23.7818 7.81848 23.7411 8.38399 23.3867 8.7384L22.3738 9.75127C21.7439 10.3812 22.19 11.4584 23.0809 11.4584H28.1667C28.719 11.4584 29.1667 11.0107 29.1667 10.4584V5.37259C29.1667 4.48169 28.0896 4.03552 27.4596 4.66549L26.8104 5.31472C26.3899 5.73517 25.6995 5.69563 25.2912 5.2634C24.0989 4.00135 22.6821 2.96725 21.1099 2.21581C19.2023 1.30403 17.1144 0.831625 15 0.833379C7.51204 0.833379 1.38125 6.64237 0.86813 13.9999C0.829706 14.5508 1.28109 15 1.83337 15H2.66671C3.21899 15 3.66212 14.5514 3.71077 14.0013C3.94422 11.3616 5.09746 8.87488 6.98616 6.98617C9.11158 4.86076 11.9943 3.66671 15 3.66671ZM27.3334 15C26.7811 15 26.338 15.4487 26.2893 15.9988C26.1111 18.0145 25.3955 19.9523 24.209 21.6064C22.8275 23.5322 20.877 24.9764 18.6319 25.736C16.3868 26.4955 13.9601 26.532 11.6932 25.8405C9.70607 25.2343 7.92935 24.0954 6.5519 22.555C6.21791 22.1815 6.25881 21.6163 6.6131 21.262L7.62627 20.2488C8.25623 19.6189 7.81007 18.5417 6.91916 18.5417H1.83337C1.28109 18.5417 0.833374 18.9894 0.833374 19.5417V24.6275C0.833374 25.5184 1.91052 25.9646 2.54048 25.3346L3.18971 24.6854C3.61017 24.2649 4.30056 24.3045 4.70889 24.7367C5.90118 25.9987 7.31799 27.0328 8.89016 27.7843C10.7978 28.6961 12.8857 29.1685 15 29.1667C22.488 29.1667 28.6188 23.3577 29.132 16.0002C29.1704 15.4493 28.719 15 28.1667 15H27.3334Z" fill="url(#paint0_linear_23_127)"/>
<defs>
<linearGradient id="paint0_linear_23_127" x1="15" y1="0.833374" x2="15" y2="29.1667" gradientUnits="userSpaceOnUse">
<stop stop-color="#B55DDF"/>
<stop offset="1" stop-color="#4A95CC"/>
</linearGradient>
</defs>
</svg>
