<svg width="30" height="26" viewBox="0 0 30 26" fill="none" xmlns="http://www.w3.org/2000/svg">
<path d="M18.9944 22.6281L18.9939 22.6285C18.2542 23.2128 17.5593 23.7537 16.8794 24.1511C16.1993 24.5485 15.5815 24.7734 15 24.7734C14.4186 24.7734 13.8008 24.5483 13.1205 24.1507C12.4405 23.7532 11.7456 23.2127 11.0058 22.6297C10.6031 22.3122 10.1897 21.9935 9.77108 21.6708C7.9921 20.2995 6.1187 18.8554 4.57563 17.118C2.68661 14.9911 1.33331 12.4643 1.33331 9.17578C1.33331 5.9182 3.1748 3.15719 5.73386 1.98762C8.26137 0.832464 11.5801 1.19293 14.6397 4.37286L14.9999 4.7473L15.3602 4.3729C18.4198 1.19368 21.7385 0.83351 24.2661 1.98885C26.8252 3.1586 28.6666 5.91962 28.6666 9.17719C28.6666 12.4651 27.3137 14.9918 25.4249 17.1185C23.8792 18.8588 22.0018 20.3048 20.2197 21.6774C19.8043 21.9974 19.3941 22.3133 18.9944 22.6281Z" fill="#B55DDF" stroke="#B55DDF"/>
</svg>
