<svg width="30" height="26" viewBox="0 0 30 26" fill="none" xmlns="http://www.w3.org/2000/svg">
<path d="M11.625 21.8444C11.2034 21.512 10.7771 21.1832 10.3504 20.8541C8.57743 19.4866 6.7976 18.1139 5.32332 16.4539C3.54572 14.4525 2.33331 12.1522 2.33331 9.17578C2.33331 6.29228 3.96194 3.89693 6.14954 2.89713C8.24248 1.94059 11.1153 2.15217 13.9191 5.0662L14.9999 6.18952L16.0808 5.06632C18.8845 2.153 21.7573 1.9416 23.8503 2.89834C26.038 3.89832 27.6666 6.29371 27.6666 9.17719C27.6666 12.153 26.4545 14.4532 24.6772 16.4544C23.2004 18.1172 21.4166 19.4919 19.6401 20.8609C19.2168 21.1872 18.7939 21.5131 18.3757 21.8425L18.374 21.8438C17.6256 22.435 16.9845 22.9314 16.3748 23.2877C15.7646 23.6443 15.3277 23.7734 15 23.7734C14.6726 23.7734 14.2358 23.6442 13.6251 23.2873C13.0151 22.9308 12.374 22.4347 11.625 21.8444ZM11.625 21.8444L10.6973 23.0208L11.6246 21.8441C11.6247 21.8442 11.6248 21.8443 11.625 21.8444Z" stroke="#B55DDF" stroke-width="3"/>
</svg>
